<?xml version="1.0" standalone="no"?><!DOCTYPE svg PUBLIC "-//W3C//DTD SVG 1.1//EN" "http://www.w3.org/Graphics/SVG/1.1/DTD/svg11.dtd"><svg t="1719467923992" class="icon" viewBox="0 0 1024 1024" version="1.1" xmlns="http://www.w3.org/2000/svg" p-id="1602" xmlns:xlink="http://www.w3.org/1999/xlink" width="200" height="200"><path d="M951.1 950.5c-11.5 11.5-32.1 14.1-43.6 2.6 0 0-178.7-180.1-212.7-212.3-0.2 0.3-5.9 5.1-5.9 5.1-66 53.6-150 86.5-241.6 86.5-212 0-383.8-172.7-383.8-384.9S235.3 63.4 447.3 63.4s384.8 172 384.8 384.1c0 94.5-35.3 180.7-91.9 247.6 0.3 0.9 212.5 211.5 212.5 211.5 11.5 11.6 9.9 32.4-1.6 43.9zM447.3 128.3c-174.7 0-319 144.4-319 319.2s144.3 320.9 319 320.9 321.3-146.1 321.3-320.9S622 128.3 447.3 128.3z" fill="#BBBBBB" p-id="1603"></path></svg>